<svg width="18" height="18" fill="none" xmlns="http://www.w3.org/2000/svg"><path fill-rule="evenodd" clip-rule="evenodd" d="M9 .667a8.333 8.333 0 1 0 0 16.666A8.333 8.333 0 0 0 9 .667Zm0 15A6.667 6.667 0 1 1 9 2.333a6.667 6.667 0 0 1 0 13.334Zm2.133-9.242.442.442a.4.4 0 0 1 0 .583L10.033 9l1.542 1.55a.4.4 0 0 1 0 .583l-.442.442a.4.4 0 0 1-.583 0L9 10.033l-1.55 1.542a.4.4 0 0 1-.583 0l-.442-.442a.4.4 0 0 1 0-.583L7.967 9 6.425 7.45a.4.4 0 0 1 0-.583l.442-.442a.4.4 0 0 1 .583 0L9 7.967l1.55-1.542a.4.4 0 0 1 .583 0Z" fill="#fff"/></svg>