<svg width="108" height="30" viewBox="0 0 108 30" fill="none" xmlns="http://www.w3.org/2000/svg">
<g clip-path="url(#clip0_854_912)">
<path d="M3.60216 27.0797C3.60216 27.6347 3.47249 28.0812 3.21317 28.4191C2.95384 28.7548 2.60579 28.9226 2.16903 28.9226C1.70269 28.9226 1.34213 28.7603 1.08735 28.4358L1.05664 28.8555H0.476562V23.6992H1.10783V25.6227C1.36261 25.3117 1.71406 25.1561 2.1622 25.1561C2.61034 25.1561 2.9618 25.3228 3.21658 25.6563C3.47363 25.9898 3.60216 26.4463 3.60216 27.0259V27.0797ZM2.9709 27.0092C2.9709 26.5862 2.88787 26.2594 2.7218 26.0289C2.55574 25.7984 2.31689 25.6832 2.00524 25.6832C1.58895 25.6832 1.28981 25.8734 1.10783 26.2538V27.8249C1.30119 28.2053 1.60259 28.3956 2.01207 28.3956C2.31461 28.3956 2.55006 28.2803 2.71839 28.0498C2.88673 27.8193 2.9709 27.4724 2.9709 27.0092ZM5.5676 27.9457L6.42746 25.2233H7.10309L5.61878 29.4161C5.38903 30.0203 5.02392 30.3225 4.52346 30.3225L4.40403 30.3123L4.16859 30.2687V29.7652L4.3392 29.7786C4.55303 29.7786 4.71909 29.7361 4.83738 29.651C4.95795 29.566 5.0569 29.4105 5.13425 29.1845L5.27415 28.8152L3.95703 25.2233H4.6463L5.5676 27.9457ZM13.3202 28.8555H12.6616L10.1604 25.089V28.8555H9.5019V23.9678H10.1604L12.6685 27.751V23.9678H13.3202V28.8555ZM17.2886 27.5798H15.2072L14.7396 28.8555H14.064L15.9613 23.9678H16.5345L18.4351 28.8555H17.7629L17.2886 27.5798ZM15.4051 27.0494H17.0941L16.2478 24.7633L15.4051 27.0494ZM19.759 26.942V28.8555H19.1039V23.9678H20.9362C21.4799 23.9678 21.9053 24.1043 22.2124 24.3773C22.5218 24.6503 22.6765 25.0118 22.6765 25.4616C22.6765 25.936 22.5252 26.302 22.2226 26.5593C21.9224 26.8145 21.4913 26.942 20.9294 26.942H19.759ZM19.759 26.415H20.9362C21.2866 26.415 21.555 26.3344 21.7415 26.1733C21.9281 26.0099 22.0213 25.7749 22.0213 25.4683C22.0213 25.1774 21.9281 24.9447 21.7415 24.7701C21.555 24.5955 21.2991 24.5049 20.9738 24.4982H19.759V26.415ZM25.7851 27.5798H23.7036L23.2361 28.8555H22.5605L24.4577 23.9678H25.0309L26.9315 28.8555H26.2593L25.7851 27.5798ZM23.9015 27.0494H25.5905L24.7443 24.7633L23.9015 27.0494Z" fill="white"/>
<path d="M37.3491 21.1133L41.2944 29.4677H40.3816L39.0518 26.7183H35.4005L34.0823 29.4677H33.1406L37.1358 21.1133H37.3491ZM37.2434 22.8886L35.7925 25.9152H38.6847L37.2434 22.8886Z" fill="white"/>
<path d="M42.6328 21.1133H43.4784V26.1582C43.4696 26.532 43.4811 26.906 43.5129 27.2785C43.5452 27.5725 43.6487 27.8545 43.8146 28.1007C43.9961 28.3455 44.2402 28.5381 44.5219 28.6588C44.8212 28.8035 45.1495 28.88 45.4827 28.8829C45.761 28.8831 46.0358 28.8228 46.2879 28.7063C46.5369 28.5936 46.757 28.4268 46.9317 28.2183C47.1133 27.9952 47.2444 27.7363 47.316 27.4588C47.3912 27.027 47.4202 26.5885 47.4025 26.1507V21.1133H48.2346V26.1582C48.2525 26.7695 48.178 27.38 48.0136 27.9697C47.85 28.45 47.5407 28.869 47.1277 29.1697C46.6674 29.5173 46.1003 29.6983 45.5212 29.6823C44.9002 29.6997 44.2886 29.5309 43.7666 29.1981C43.2974 28.9004 42.9507 28.4475 42.7885 27.9203C42.6847 27.5956 42.6328 27.007 42.6328 26.1582V21.1133Z" fill="white"/>
<path d="M49.4766 21.9317V21.1133H54.1117V21.9317H52.2265V29.4715H51.3637V21.9317H49.4766Z" fill="white"/>
<path d="M65.1836 29.4716L66.3945 21.1172H66.533L69.9705 27.9754L73.3776 21.1172H73.5123L74.7308 29.4716H73.9005L73.0644 23.4944L70.0741 29.4716H69.8575L66.8303 23.4488L66.0006 29.4716H65.1836Z" fill="white"/>
<path d="M85.7852 21.9317V21.1133H90.4203V21.9317H88.5353V29.4715H87.6726V21.9317H85.7852Z" fill="white"/>
<path d="M91.5234 21.1133H92.3684V29.4677H91.5234V21.1133Z" fill="white"/>
<path d="M93.6602 21.1133H94.5807L97.3842 27.569L100.232 21.1133H101.153L97.4732 29.4677H97.2807L93.6602 21.1133Z" fill="white"/>
<path d="M102.582 21.1133H107.427V21.9317H103.428V24.5519H107.396V25.3683H103.428V28.6532H107.396V29.4715H102.582V21.1133Z" fill="white"/>
<path d="M59.4351 21.0769C58.5906 21.0618 57.7607 21.2955 57.0512 21.7482C56.3417 22.2009 55.7846 22.852 55.4511 23.6187C55.1176 24.3854 55.0227 25.2329 55.1784 26.053C55.3342 26.8732 55.7336 27.629 56.3258 28.2241C56.9179 28.8191 57.676 29.2265 58.5034 29.3942C59.3308 29.562 60.19 29.4825 60.9714 29.1659C61.7529 28.8494 62.4212 28.31 62.8914 27.6168C63.3615 26.9235 63.6118 26.1075 63.6112 25.273C63.6195 24.1697 63.1847 23.108 62.4018 22.3212C61.6188 21.5344 60.5518 21.0869 59.4351 21.0769ZM61.5816 24.7851L59.3236 28.8256C59.3172 28.8365 59.3075 28.845 59.2957 28.8498C59.284 28.8546 59.271 28.8554 59.2587 28.8522C59.2465 28.849 59.2356 28.8418 59.2279 28.8319C59.2202 28.8219 59.216 28.8097 59.216 28.7971L59.2025 26.0135H57.3366C57.3263 26.0129 57.3165 26.0097 57.3078 26.0042C57.2991 25.9987 57.292 25.9912 57.287 25.9824C57.2821 25.9735 57.2794 25.9635 57.2794 25.9534C57.2793 25.9433 57.2818 25.9333 57.2866 25.9244L59.5926 21.7319C59.5984 21.7197 59.6084 21.7099 59.6209 21.7042C59.6332 21.6986 59.6473 21.6975 59.6605 21.7012C59.6737 21.7049 59.685 21.713 59.6927 21.7242C59.7003 21.7354 59.7037 21.7489 59.7022 21.7623L59.7175 24.6977H61.5278C61.5375 24.6979 61.5471 24.7005 61.5556 24.7051C61.5641 24.7098 61.5713 24.7164 61.5766 24.7245C61.5819 24.7325 61.5852 24.7417 61.586 24.7513C61.5869 24.7609 61.5854 24.7705 61.5816 24.7794V24.7851Z" fill="white"/>
<path d="M0 14.8107V0.363281H3.04014C5.22705 0.363281 6.81436 0.537332 7.80211 0.885432C9.17219 1.33894 10.3453 2.23957 11.1286 3.43923C11.928 4.65063 12.3271 6.09429 12.3258 7.77023C12.3548 9.10461 12.0273 10.4229 11.3765 11.5924C10.8127 12.6246 9.95569 13.4714 8.91095 14.0285C7.90014 14.55 6.48381 14.8107 4.66206 14.8107H0ZM1.40285 13.4455H3.09203C5.11367 13.4455 6.51589 13.319 7.29864 13.0658C8.35736 12.7439 9.27275 12.0739 9.89293 11.1671C10.5233 10.2481 10.8384 9.12404 10.8384 7.79492C10.8384 6.40254 10.497 5.21201 9.81415 4.22341C9.13312 3.23686 8.12313 2.51784 6.96041 2.19176C6.05082 1.91708 4.54548 1.7791 2.44442 1.77784H1.41053L1.40285 13.4455Z" fill="white"/>
<path d="M24.0402 11.2659L25.2125 11.8754C24.8803 12.5515 24.4287 13.1637 23.8788 13.683C23.3843 14.1353 22.8071 14.4904 22.1781 14.7292C21.4935 14.9778 20.7685 15.0995 20.0392 15.088C18.2738 15.088 16.8934 14.5184 15.8979 13.3792C14.9339 12.3095 14.4052 10.9248 14.4144 9.49247C14.4005 8.17672 14.8464 6.89647 15.677 5.8678C16.7454 4.51717 18.1752 3.84248 19.9662 3.84375C21.811 3.84375 23.2844 4.53489 24.3861 5.91717C25.1702 6.8931 25.5686 8.11085 25.5814 9.57035H15.8384C15.864 10.8121 16.265 11.8298 17.0414 12.6235C17.4107 13.0103 17.8581 13.3161 18.3547 13.5212C18.8513 13.7263 19.3859 13.826 19.9239 13.814C20.4699 13.8151 21.0117 13.7213 21.5247 13.5368C22.0105 13.3658 22.4606 13.1083 22.8526 12.7773C23.3229 12.3352 23.7232 11.8257 24.0402 11.2659ZM24.0402 8.38741C23.8991 7.75116 23.6227 7.15185 23.2293 6.62922C22.8495 6.17215 22.3672 5.80876 21.8206 5.5678C21.2467 5.30277 20.6209 5.16536 19.9874 5.16527C18.9781 5.14645 17.9995 5.50835 17.2508 6.1773C16.6936 6.66972 16.272 7.40641 15.9863 8.38741H24.0402Z" fill="white"/>
<path d="M27.1406 4.125H28.6223L32.2524 11.9098L35.8402 4.125H37.3314L32.3811 14.8092H32.1217L27.1406 4.125Z" fill="white"/>
<path d="M48.5557 11.2659L49.728 11.8754C49.3958 12.5515 48.9442 13.1637 48.3943 13.683C47.901 14.1349 47.3251 14.49 46.6974 14.7292C46.0129 14.9778 45.2878 15.0995 44.5586 15.088C42.7932 15.088 41.4127 14.5184 40.4173 13.3792C39.449 12.3113 38.9162 10.9263 38.9222 9.49247C38.9083 8.17672 39.3543 6.89647 40.1848 5.8678C41.2532 4.51717 42.683 3.84248 44.474 3.84375C46.3189 3.84375 47.7922 4.53489 48.894 5.91717C49.678 6.8931 50.0764 8.11085 50.0893 9.57035H40.3558C40.3801 10.8121 40.7811 11.8298 41.5588 12.6235C41.9281 13.0103 42.3755 13.3161 42.8721 13.5212C43.3687 13.7263 43.9033 13.826 44.4414 13.814C44.9902 13.8142 45.5347 13.7184 46.0498 13.5311C46.5356 13.3601 46.9857 13.1027 47.3777 12.7716C47.8441 12.3305 48.2412 11.823 48.5557 11.2659ZM48.5557 8.38741C48.4146 7.75116 48.1382 7.15185 47.7448 6.62922C47.365 6.17215 46.8827 5.80876 46.3361 5.5678C45.7592 5.30141 45.13 5.16397 44.4932 5.16527C43.484 5.14645 42.5054 5.50835 41.7567 6.1773C41.1994 6.66972 40.7779 7.40641 40.4923 8.38741H48.5557Z" fill="white"/>
<path d="M52.4727 0H53.8659V14.8101H52.4727V0Z" fill="white"/>
<path d="M61.8751 3.85128C62.656 3.83276 63.4314 3.98327 64.147 4.29225C64.8629 4.60123 65.5014 5.0612 66.0185 5.6399C66.9988 6.68748 67.5331 8.06773 67.5115 9.4943C67.5248 10.9536 66.9575 12.3597 65.9321 13.4095C64.8801 14.526 63.5269 15.0842 61.8732 15.0842C60.2193 15.0842 58.8632 14.526 57.8049 13.4095C56.7803 12.359 56.2138 10.9532 56.2272 9.4943C56.2056 8.06886 56.7403 6.68992 57.7204 5.64369C58.2382 5.06302 58.8786 4.60158 59.5964 4.2919C60.3142 3.98222 61.0921 3.83182 61.8751 3.85128ZM61.8751 5.19749C61.3157 5.1899 60.7609 5.29797 60.2463 5.51477C59.7317 5.73156 59.2686 6.05229 58.8868 6.45636C58.4821 6.85999 58.1638 7.34005 57.9508 7.86786C57.7379 8.39567 57.6347 8.96042 57.6474 9.52848C57.645 10.2868 57.8437 11.0324 58.2239 11.6912C58.5815 12.3372 59.1137 12.8723 59.7613 13.2367C60.4112 13.594 61.1428 13.7815 61.8866 13.7815C62.6305 13.7815 63.362 13.594 64.0123 13.2367C64.659 12.8717 65.1914 12.3367 65.5497 11.6912C65.9296 11.0324 66.1284 10.2868 66.1259 9.52848C66.1335 8.95773 66.0249 8.39123 65.8051 7.86323C65.5853 7.3353 65.26 6.85667 64.8477 6.45636C64.4678 6.05465 64.0072 5.73535 63.4953 5.51865C62.9835 5.30196 62.4319 5.1926 61.8751 5.19749Z" fill="white"/>
<path d="M70.1094 4.12543H71.5026V6.09062C71.9975 5.3922 72.6506 4.81696 73.4091 4.41024C74.1473 4.03089 74.9694 3.83843 75.8016 3.85011C76.5379 3.84007 77.2679 3.98064 77.947 4.26296C78.6255 4.54528 79.2373 4.96326 79.7449 5.49062C80.2747 6.00484 80.6927 6.62007 80.9748 7.29901C81.2569 7.97789 81.396 8.70632 81.3839 9.44001C81.3979 10.1813 81.2601 10.9178 80.9793 11.6054C80.6985 12.2931 80.2811 12.9179 79.7506 13.4425C78.9533 14.2578 77.9165 14.8041 76.787 15.0042C75.6574 15.2043 74.4929 15.0478 73.4586 14.5571C72.6995 14.1742 72.0324 13.6348 71.5026 12.9754V18.7229H70.1094V4.12543ZM75.6822 5.17543C75.1155 5.16351 74.552 5.26826 74.0285 5.48302C73.505 5.69778 73.0317 6.01786 72.6404 6.42289C72.2344 6.8312 71.9155 7.31626 71.7033 7.84901C71.4918 8.38176 71.3908 8.95132 71.4066 9.52351C71.3939 10.2874 71.5839 11.0413 71.9562 11.7109C72.3246 12.3605 72.8716 12.8943 73.5336 13.2508C74.1937 13.6241 74.9408 13.8205 75.7012 13.8204C76.4452 13.8244 77.1764 13.6274 77.8155 13.2508C78.4756 12.8651 79.0187 12.3109 79.3872 11.6463C79.769 10.9893 79.9698 10.2449 79.9698 9.48745C79.9698 8.72995 79.769 7.98564 79.3872 7.32857C79.0232 6.67232 78.4857 6.12567 77.832 5.7466C77.1789 5.36754 76.4344 5.17017 75.6765 5.17543H75.6822Z" fill="white"/>
<path d="M93.087 11.2659L94.2611 11.8754C93.9282 12.5512 93.4765 13.1632 92.9276 13.683C92.432 14.1354 91.8546 14.4905 91.225 14.7292C90.5401 14.9778 89.8153 15.0995 89.086 15.088C87.3217 15.088 85.9419 14.5184 84.9464 13.3792C83.9782 12.3113 83.4465 10.9262 83.4534 9.49247C83.4395 8.17635 83.8861 6.89591 84.7177 5.8678C85.7862 4.51717 87.2163 3.84248 89.0072 3.84375C90.8495 3.84375 92.3228 4.53489 93.4269 5.91717C94.2096 6.8931 94.6073 8.11085 94.6206 9.57035H84.8848C84.9121 10.8121 85.3136 11.8298 86.0899 12.6235C86.459 13.0103 86.9069 13.3161 87.4031 13.5212C87.8999 13.7263 88.4341 13.826 88.9722 13.814C89.5205 13.814 90.0643 13.7182 90.5789 13.5311C91.0655 13.3599 91.516 13.1025 91.9086 12.7716C92.3755 12.3305 92.7726 11.823 93.087 11.2659ZM93.087 8.38741C92.9473 7.7506 92.6709 7.15097 92.2758 6.62922C91.8959 6.17215 91.4137 5.80876 90.8673 5.5678C90.2911 5.30145 89.6622 5.164 89.0262 5.16527C88.0155 5.14548 87.0359 5.50744 86.2862 6.1773C85.7284 6.66972 85.3079 7.40641 85.0233 8.38741H93.087Z" fill="white"/>
<path d="M108.008 0V14.8101H106.636V12.9759C106.104 13.6362 105.434 14.1756 104.672 14.5576C103.636 15.0481 102.47 15.2044 101.339 15.0044C100.208 14.8044 99.1689 14.2582 98.3691 13.4431C97.8399 12.9183 97.4225 12.2933 97.1429 11.6056C96.864 10.9178 96.7281 10.1814 96.7433 9.4405C96.7325 8.70631 96.8729 7.97756 97.1563 7.29869C97.4396 6.61975 97.8595 6.00478 98.39 5.49114C98.8983 4.96386 99.5113 4.54597 100.19 4.26367C100.87 3.98137 101.601 3.84076 102.338 3.85063C103.175 3.83857 104.003 4.03097 104.747 4.41076C105.504 4.81592 106.153 5.39162 106.642 6.09114V0H108.008ZM102.445 5.17595C101.688 5.17127 100.945 5.36849 100.291 5.74678C99.639 6.12507 99.1015 6.67044 98.7363 7.32531C98.3544 7.98219 98.1531 8.72656 98.1531 9.48419C98.1531 10.2418 98.3544 10.9862 98.7363 11.6431C99.1054 12.3084 99.6498 12.8627 100.312 13.2474C100.952 13.6234 101.682 13.8204 102.426 13.8171C103.186 13.8174 103.932 13.6211 104.592 13.2474C105.251 12.8892 105.796 12.3559 106.165 11.7076C106.538 11.038 106.728 10.2842 106.715 9.52025C106.731 8.94781 106.63 8.37812 106.418 7.84531C106.205 7.3125 105.886 6.82756 105.479 6.41962C105.088 6.01649 104.617 5.69787 104.094 5.48382C103.572 5.26977 103.011 5.16494 102.445 5.17595Z" fill="white"/>
<path d="M80.6198 29.4937C82.9685 29.4937 84.8725 27.6124 84.8725 25.2917C84.8725 22.9711 82.9685 21.0898 80.6198 21.0898C78.2712 21.0898 76.3672 22.9711 76.3672 25.2917C76.3672 27.6124 78.2712 29.4937 80.6198 29.4937Z" fill="white"/>
</g>
<defs>
<clipPath id="clip0_854_912">
<rect width="108" height="30" fill="white"/>
</clipPath>
</defs>
</svg>
