<svg width="20" height="20" fill="none" xmlns="http://www.w3.org/2000/svg"><path fill-rule="evenodd" clip-rule="evenodd" d="M0 10C0 4.477 4.477 0 10 0A10 10 0 1 1 0 10Zm2 0a8 8 0 1 0 16 0 8 8 0 0 0-16 0Zm7.5 4a.5.5 0 0 0-.5.5v1a.5.5 0 0 0 .5.5h1a.5.5 0 0 0 .5-.5v-1a.5.5 0 0 0-.5-.5h-1ZM11 4.12A2.88 2.88 0 0 1 13.88 7l.07.56a2.89 2.89 0 0 1-2 2.73l-.95.31a.13.13 0 0 0-.12.12v.78a.5.5 0 0 1-.5.5h-.76a.5.5 0 0 1-.5-.5v-.78a1.88 1.88 0 0 1 1.29-1.78l.95-.31a1.13 1.13 0 0 0 .76-1.07V7A1.12 1.12 0 0 0 11 5.88H9A1.12 1.12 0 0 0 7.88 7v.5a.5.5 0 0 1-.5.5h-.76a.5.5 0 0 1-.5-.5V7A2.88 2.88 0 0 1 9 4.12h2Z" fill="#fff"/></svg>